<svg width="1273" height="208" viewBox="0 0 1273 208" fill="none" xmlns="http://www.w3.org/2000/svg">
<g clip-path="url(#clip0_635_3)">
<path d="M619.09 2.51001H627.19C633.27 2.51001 636.75 5.99001 636.75 12.07V89.91H684.49V12.07C684.49 5.99001 687.97 2.51001 694.05 2.51001H702.15C708.52 2.51001 711.7 5.99001 711.7 12.07V195.54C711.7 201.61 708.52 205.09 702.15 205.09H694.05C687.97 205.09 684.49 201.61 684.49 195.54V114.22H636.75V195.54C636.75 201.61 633.27 205.09 627.19 205.09H619.09C612.72 205.09 609.54 201.61 609.54 195.54V12.07C609.54 5.99001 612.72 2.51001 619.09 2.51001" fill="black"/>
<path d="M820.77 205.09H753.6C747.23 205.09 744.05 201.62 744.05 195.54V12.07C744.05 5.99001 747.23 2.52002 753.6 2.52002H819.88C826.24 2.52002 829.42 5.99001 829.42 12.07V16.99C829.42 23.3634 826.24 26.5467 819.88 26.54H771.26V90.21H810.9C817.27 90.21 820.45 93.67 820.45 99.75V104.96C820.45 111.03 817.27 114.51 810.9 114.51H771.26V181.07H820.75C827.117 181.07 830.296 184.253 830.29 190.62V195.54C830.29 201.62 827.12 205.09 820.75 205.09" fill="black"/>
<path d="M946.34 205.1H937.94C932.16 205.1 928.687 202.203 927.52 196.41L920.6 157.33H876.9L869.9 196.41C869.04 202.2 865.28 205.1 859.78 205.1H852.6C846.23 205.1 843.05 201.33 844.21 194.68L880.6 11.2C881.76 5.41001 885.52 2.51001 891.02 2.51001H907.23C912.72 2.51001 916.49 5.41001 917.65 11.2L954.65 194.68C956.09 201.33 952.65 205.1 946.26 205.1H946.34ZM916.45 134.48L898.79 36.67L881.14 134.48H916.45Z" fill="black"/>
<path d="M1058.89 190.04V195.54C1058.89 201.61 1055.7 205.1 1049.33 205.1H986.531C980.161 205.1 976.98 201.61 976.98 195.54V12.06C976.98 6 980.161 2.52002 986.531 2.52002H994.63C1000.71 2.52002 1004.19 6 1004.19 12.06V180.49H1049.33C1055.7 180.49 1058.89 183.97 1058.89 190.04Z" fill="black"/>
<path d="M1146.25 12.07V16.98C1146.25 23.3533 1143.07 26.54 1136.71 26.54H1110.96V195.54C1110.96 201.61 1107.48 205.09 1101.4 205.09H1093.3C1087.22 205.09 1083.75 201.61 1083.75 195.54V26.54H1057.99C1051.91 26.54 1048.44 23.35 1048.44 16.98V12.07C1048.44 5.99001 1051.91 2.51001 1057.99 2.51001H1136.71C1143.07 2.51001 1146.25 5.99001 1146.25 12.07" fill="black"/>
<path d="M1174.6 2.51001H1182.7C1188.78 2.51001 1192.26 5.99001 1192.26 12.07V89.91H1240V12.07C1240 5.99001 1243.48 2.51001 1249.55 2.51001H1257.65C1264.02 2.51001 1267.21 5.99001 1267.21 12.07V195.54C1267.21 201.61 1264.02 205.09 1257.65 205.09H1249.55C1243.48 205.09 1240 201.61 1240 195.54V114.22H1192.26V195.54C1192.26 201.61 1188.78 205.09 1182.7 205.09H1174.6C1168.23 205.09 1165.05 201.61 1165.05 195.54V12.07C1165.05 5.99001 1168.23 2.51001 1174.6 2.51001" fill="black"/>
<path d="M107.39 133.4V165.08C107.39 195.6 88.79 208.08 57.99 208.08H57.41C26.6 208.08 8 195.87 8 165.08V43.02C8 13.66 26.6 0.0200195 57.41 0.0200195H57.99C88.79 0.0200195 107.39 13.68 107.39 43.02V69.79C107.39 75.9 104.2 79.39 97.8 79.39H89.67C83.56 79.39 80.07 75.9 80.07 69.79V48.29C80.07 30.57 72.52 24.17 57.7 24.17C42.88 24.17 35.31 30.57 35.31 48.29V159.89C35.31 177.63 42.87 184.01 57.7 184.01C72.53 184.01 80.07 177.63 80.07 159.89V133.4C80.07 127.3 83.56 123.81 89.67 123.81H97.8C104.2 123.81 107.39 127.3 107.39 133.4Z" fill="black"/>
<path d="M214.6 205.79H147.2C140.8 205.79 137.61 202.31 137.61 196.2V11.9301C137.61 5.82008 140.8 2.33008 147.2 2.33008H213.75C220.14 2.33008 223.34 5.82008 223.34 11.9301V16.8601C223.34 23.2467 220.144 26.4467 213.75 26.4601H164.93V90.3901H204.74C211.14 90.3901 214.33 93.8801 214.33 99.9901V105.21C214.33 111.31 211.14 114.8 204.74 114.8H164.93V181.65H214.6C221 181.65 224.2 184.847 224.2 191.24V196.18C224.2 202.29 221 205.77 214.6 205.77" fill="black"/>
<path d="M267.21 205.79H259.08C252.68 205.79 249.49 202.31 249.49 196.2V11.9301C249.49 5.82008 252.68 2.33008 259.08 2.33008H267.21C273.32 2.33008 276.81 5.82008 276.81 11.9301V196.18C276.81 202.29 273.32 205.77 267.21 205.77" fill="black"/>
<path d="M386.37 99.9901C404.67 102.9 410.2 117.42 410.2 132.24V165.66C410.2 190.36 392.2 205.77 361.37 205.77H320.1C313.71 205.77 310.51 202.29 310.51 196.18V11.9201C310.51 5.82007 313.71 2.33008 320.1 2.33008H361.95C392.75 2.33008 409.03 17.7301 409.03 42.4401V68.0101C409.03 81.9601 403.51 97.9501 386.37 100.01V99.9901ZM337.83 88.9601H361.37C374.45 88.9601 381.72 83.1401 381.72 70.6501V47.0901C381.72 32.8501 375.03 26.1601 361.37 26.1601H337.83V88.9601ZM362.53 112.21H337.83V181.96H362.53C376.19 181.96 382.88 175.27 382.88 161.03V130.5C382.88 118 375.61 112.19 362.53 112.19" fill="black"/>
<path d="M529.34 205.79H520.91C515.104 205.79 511.617 202.883 510.45 197.07L503.45 157.83H459.6L452.6 197.07C451.72 202.88 447.95 205.79 442.42 205.79H435.15C428.77 205.79 425.57 202.02 426.73 195.32L463.35 11.0701C464.51 5.2601 468.29 2.3501 473.82 2.3501H490.09C495.61 2.3501 499.39 5.2601 500.55 11.0701L537.75 195.32C539.2 202.02 535.75 205.79 529.32 205.79H529.34ZM499.39 134.87L481.66 36.6401L463.93 134.87H499.39Z" fill="black"/>
</g>
<defs>
<clipPath id="clip0_635_3">
<rect width="1273" height="208" fill="white"/>
</clipPath>
</defs>
</svg>
